<svg id="Date_user_history" data-name="Date_user history" xmlns="http://www.w3.org/2000/svg" width="11" height="10.28" viewBox="0 0 11 10.28">
  <path id="Path_9573" data-name="Path 9573" d="M10.8,2H9.773V3.028a.343.343,0,0,1-.685,0V2H3.6V3.028a.343.343,0,0,1-.685,0V2H1.891A.944.944,0,0,0,1,3.028V4.262H11.966V3.028A1.156,1.156,0,0,0,10.8,2ZM1,4.981v6.271a.93.93,0,0,0,.925,1.028h8.91A1.156,1.156,0,0,0,12,11.252V4.981Zm3.05,5.757H3.227a.27.27,0,0,1-.274-.274V9.607a.27.27,0,0,1,.274-.274h.857a.27.27,0,0,1,.274.274v.857A.3.3,0,0,1,4.05,10.738Zm0-3.084H3.227a.27.27,0,0,1-.274-.274V6.523a.27.27,0,0,1,.274-.274h.857a.27.27,0,0,1,.274.274V7.38A.3.3,0,0,1,4.05,7.654Zm2.741,3.084H5.935a.27.27,0,0,1-.274-.274V9.607a.27.27,0,0,1,.274-.274h.857a.27.27,0,0,1,.274.274v.857A.252.252,0,0,1,6.791,10.738Zm0-3.084H5.935A.27.27,0,0,1,5.66,7.38V6.523a.27.27,0,0,1,.274-.274h.857a.27.27,0,0,1,.274.274V7.38A.252.252,0,0,1,6.791,7.654Zm2.741,3.084H8.676a.27.27,0,0,1-.274-.274V9.607a.27.27,0,0,1,.274-.274h.857a.27.27,0,0,1,.274.274v.857A.252.252,0,0,1,9.533,10.738Zm0-3.084H8.676A.27.27,0,0,1,8.4,7.38V6.523a.27.27,0,0,1,.274-.274h.857a.27.27,0,0,1,.274.274V7.38A.252.252,0,0,1,9.533,7.654Z" transform="translate(-1 -2)" fill="#0aa8ba"/>
</svg>
