<svg xmlns="http://www.w3.org/2000/svg" width="20.3" height="20.3" viewBox="0 0 20.3 20.3">
  <g id="edit" transform="translate(0 -0.501)">
    <path id="Path_9631" data-name="Path 9631" d="M16.071,92.583a.846.846,0,0,0-.846.846V100.2a.847.847,0,0,1-.846.846H2.538a.847.847,0,0,1-.846-.846V88.354a.847.847,0,0,1,.846-.846H9.3a.846.846,0,0,0,0-1.692H2.538A2.541,2.541,0,0,0,0,88.354V100.2a2.541,2.541,0,0,0,2.538,2.538H14.38a2.541,2.541,0,0,0,2.538-2.538V93.429a.845.845,0,0,0-.846-.846Zm0,0" transform="translate(0 -81.932)" fill="#0aa8ba"/>
    <path id="Path_9632" data-name="Path 9632" d="M182.531,74.954a.428.428,0,0,0-.116.216l-.6,2.991a.423.423,0,0,0,.415.506.4.4,0,0,0,.083-.008l2.99-.6a.421.421,0,0,0,.217-.116l6.692-6.692-2.99-2.99Zm0,0" transform="translate(-174.6 -65.074)" fill="#0aa8ba"/>
    <path id="Path_9633" data-name="Path 9633" d="M395.606,1.12a2.116,2.116,0,0,0-2.99,0L391.445,2.29l2.99,2.99,1.171-1.171a2.114,2.114,0,0,0,0-2.99Zm0,0" transform="translate(-375.925)" fill="#0aa8ba"/>
  </g>
</svg>
