<svg id="History" xmlns="http://www.w3.org/2000/svg" width="59.3" height="59.28" viewBox="0 0 59.3 59.28">
  <g id="Group_17617" data-name="Group 17617" transform="translate(8.14 0.869)">
    <path id="Path_9657" data-name="Path 9657" d="M104.751,12.135A4.548,4.548,0,0,1,109.3,7.587H73.9A3.617,3.617,0,0,0,70.284,11.2V52.388h34.467V12.135Z" transform="translate(-70.284 -7.587)" fill="#ffe07d"/>
  </g>
  <path id="Path_9658" data-name="Path 9658" d="M235.967,7.586a4.548,4.548,0,0,0-4.548,4.548V30.169a2.377,2.377,0,0,1-1.718,2.293,17.945,17.945,0,0,0-11.97,23.4h16.434V12.134a4.548,4.548,0,0,1,4.548-4.548h-2.746Z" transform="translate(-191.557 -6.717)" fill="#ffd064"/>
  <path id="Path_9659" data-name="Path 9659" d="M45.084,362.458H13.93a6.43,6.43,0,0,1-6.43-6.43v-1.684H45.084v8.114Z" transform="translate(-6.631 -313.314)" fill="#eab14d"/>
  <path id="Path_9660" data-name="Path 9660" d="M216.649,356.314a17.9,17.9,0,0,0,1.081,6.145h12.279v-8.114H216.757A18.115,18.115,0,0,0,216.649,356.314Z" transform="translate(-191.557 -313.314)" fill="#e49542"/>
  <ellipse id="Ellipse_34" data-name="Ellipse 34" cx="15.412" cy="15.412" rx="15.412" ry="15.412" transform="translate(27.607 27.587)" fill="#dd636e"/>
  <path id="Path_9661" data-name="Path 9661" d="M362.163,238.276q-.613,0-1.214.048a15.413,15.413,0,0,1,0,30.729q.6.047,1.214.048a15.412,15.412,0,0,0,0-30.824Z" transform="translate(-319.144 -210.689)" fill="#da4a54"/>
  <ellipse id="Ellipse_35" data-name="Ellipse 35" cx="11.496" cy="11.496" rx="11.496" ry="11.496" transform="translate(31.524 31.504)" fill="#f4fbff"/>
  <path id="Path_9662" data-name="Path 9662" d="M359.445,272.09a11.609,11.609,0,0,0-1.57.107,11.5,11.5,0,0,1,0,22.777,11.614,11.614,0,0,0,1.57.107,11.5,11.5,0,0,0,0-22.992Z" transform="translate(-316.426 -240.586)" fill="#daf1f4"/>
  <path id="Path_9663" data-name="Path 9663" d="M376.162,19h-8.286V12.135a4.548,4.548,0,0,1,9.1,0V18.19A.809.809,0,0,1,376.162,19Z" transform="translate(-325.268 -6.718)" fill="#eab14d"/>
  <path id="Path_9664" data-name="Path 9664" d="M373.906,7.834a4.547,4.547,0,0,0-6.029,4.3V19h2.963V12.134a4.548,4.548,0,0,1,3.066-4.3Z" transform="translate(-325.269 -6.717)" fill="#e49542"/>
  <g id="Group_17618" data-name="Group 17618" transform="translate(0 0)">
    <path id="Path_9665" data-name="Path 9665" d="M139.845,60.309H117.06a.869.869,0,1,0,0,1.737h22.785a.869.869,0,1,0,0-1.737Z" transform="translate(-102.734 -53.334)"/>
    <path id="Path_9666" data-name="Path 9666" d="M139.845,135.1H117.06a.869.869,0,1,0,0,1.737h22.785a.869.869,0,1,0,0-1.737Z" transform="translate(-102.734 -119.46)"/>
    <path id="Path_9667" data-name="Path 9667" d="M139.845,209.886H117.06a.869.869,0,0,0,0,1.737h22.785a.869.869,0,0,0,0-1.737Z" transform="translate(-102.734 -185.587)"/>
    <path id="Path_9668" data-name="Path 9668" d="M277.041,264.589a12.364,12.364,0,1,0,12.364,12.364A12.378,12.378,0,0,0,277.041,264.589Zm0,22.992a10.627,10.627,0,1,1,10.627-10.627A10.639,10.639,0,0,1,277.041,287.581Z" transform="translate(-234.022 -233.954)"/>
    <path id="Path_9669" data-name="Path 9669" d="M364.8,293.835a.869.869,0,0,0,.869-.869v-.4a.869.869,0,1,0-1.737,0v.4A.869.869,0,0,0,364.8,293.835Z" transform="translate(-321.781 -257.925)"/>
    <path id="Path_9670" data-name="Path 9670" d="M413.052,313.086l-.281.281A.869.869,0,1,0,414,314.6l.281-.281a.869.869,0,0,0-1.228-1.229Z" transform="translate(-364.738 -276.609)"/>
    <path id="Path_9671" data-name="Path 9671" d="M432.64,364.713a.869.869,0,0,0,.869.869h.4a.869.869,0,0,0,0-1.737h-.4A.869.869,0,0,0,432.64,364.713Z" transform="translate(-382.531 -321.713)"/>
    <path id="Path_9672" data-name="Path 9672" d="M293.054,363.844h-.4a.869.869,0,0,0,0,1.737h.4a.869.869,0,0,0,0-1.737Z" transform="translate(-257.992 -321.713)"/>
    <path id="Path_9673" data-name="Path 9673" d="M414,412.683a.869.869,0,0,0-1.228,1.229l.281.281a.869.869,0,0,0,1.228-1.229Z" transform="translate(-364.738 -364.67)"/>
    <path id="Path_9674" data-name="Path 9674" d="M364.8,432.553a.868.868,0,0,0-.869.869v.4a.869.869,0,1,0,1.737,0v-.4A.869.869,0,0,0,364.8,432.553Z" transform="translate(-321.781 -382.464)"/>
    <path id="Path_9675" data-name="Path 9675" d="M313.453,412.684l-.281.281a.869.869,0,0,0,1.228,1.228l.281-.281a.869.869,0,1,0-1.229-1.228Z" transform="translate(-276.675 -364.672)"/>
    <path id="Path_9676" data-name="Path 9676" d="M314.4,313.086a.869.869,0,0,0-1.229,1.229l.281.281a.869.869,0,0,0,1.228-1.228Z" transform="translate(-276.676 -276.61)"/>
    <path id="Path_9677" data-name="Path 9677" d="M367.168,328.845h-1.5v-3.716a.869.869,0,1,0-1.737,0v4.585a.869.869,0,0,0,.869.869h2.368a.869.869,0,1,0,0-1.737Z" transform="translate(-321.781 -286.714)"/>
    <path id="Path_9678" data-name="Path 9678" d="M56.233,33.574a.869.869,0,1,0-1.409,1.016,14.553,14.553,0,1,1-2.206-2.43.869.869,0,1,0,1.147-1.3,16.262,16.262,0,0,0-10.289-4.044V13.236h7.417a1.68,1.68,0,0,0,1.678-1.678V5.5A5.426,5.426,0,0,0,47.245.086H26.829a.869.869,0,0,0,0,1.737H43.185A5.4,5.4,0,0,0,41.739,5.5V26.855A16.272,16.272,0,0,0,30.21,33.047H14.326a.869.869,0,1,0,0,1.737H29.019a16.167,16.167,0,0,0-2.033,5.463H9.009V4.571a2.751,2.751,0,0,1,2.748-2.748h11.6a.869.869,0,0,0,0-1.737h-11.6A4.49,4.49,0,0,0,7.272,4.571V40.248H.869A.869.869,0,0,0,0,41.116V42.8a7.307,7.307,0,0,0,7.3,7.3h2.8a.869.869,0,0,0,0-1.737H7.3A5.568,5.568,0,0,1,1.737,42.8v-.815H26.777c-.024.364-.038.73-.038,1.1a16.213,16.213,0,0,0,.878,5.276H13.569a.869.869,0,0,0,0,1.737H28.328A16.28,16.28,0,1,0,56.233,33.574ZM50.835,5.5v6H43.476v-6a3.679,3.679,0,1,1,7.358,0Z" transform="translate(0 -0.086)"/>
  </g>
</svg>
