<svg xmlns="http://www.w3.org/2000/svg" width="12.589" height="12.589" viewBox="0 0 12.589 12.589">
  <g id="hospital_name" data-name="hospital name" transform="translate(0)">
    <g id="hospital" transform="translate(0)">
      <g id="Group_227" data-name="Group 227" transform="translate(0 4.583)">
        <path id="Path_709" data-name="Path 709" d="M1.649,186.392H.369a.369.369,0,0,0-.369.369V194.4H1.649Z" transform="translate(0 -186.392)" fill="#0aa8ba"/>
        <path id="Path_710" data-name="Path 710" d="M446.232,186.392h-1.28V194.4H446.6v-7.637A.369.369,0,0,0,446.232,186.392Z" transform="translate(-434.011 -186.392)" fill="#0aa8ba"/>
      </g>
      <g id="Group_228" data-name="Group 228" transform="translate(2.386)">
        <path id="Path_711" data-name="Path 711" d="M0,0H2.464V1.283H0Z" transform="translate(4.55 10.125) rotate(90)" fill="#0aa8ba"/>
        <path id="Path_712" data-name="Path 712" d="M104.5,1.515h-1.161V.369A.369.369,0,0,0,102.966,0H99a.369.369,0,0,0-.369.369V1.515H97.417a.369.369,0,0,0-.369.369V12.589h2.529V9.756a.369.369,0,0,1,.369-.369h2.02a.369.369,0,0,1,.369.369v2.833h2.529V1.884a.369.369,0,0,0-.369-.369Zm-5.21,6.6h-.4a.369.369,0,1,1,0-.738h.4a.369.369,0,1,1,0,.738Zm0-1.475h-.4a.369.369,0,1,1,0-.738h.4a.369.369,0,1,1,0,.738Zm0-1.475h-.4a.369.369,0,1,1,0-.738h.4a.369.369,0,1,1,0,.738Zm1.869,2.951h-.4a.369.369,0,1,1,0-.738h.4a.369.369,0,1,1,0,.738Zm0-1.475h-.4a.369.369,0,1,1,0-.738h.4a.369.369,0,1,1,0,.738Zm0-1.475h-.4a.369.369,0,1,1,0-.738h.4a.369.369,0,1,1,0,.738Zm.545-2.206h-.375v.374a.369.369,0,0,1-.738,0V2.956h-.375a.369.369,0,0,1,0-.738h.375V1.844a.369.369,0,0,1,.738,0v.374h.375a.369.369,0,1,1,0,.738Zm1.324,5.156h-.4a.369.369,0,1,1,0-.738h.4a.369.369,0,1,1,0,.738Zm0-1.475h-.4a.369.369,0,1,1,0-.738h.4a.369.369,0,1,1,0,.738Zm0-1.475h-.4a.369.369,0,1,1,0-.738h.4a.369.369,0,1,1,0,.738Z" transform="translate(-97.048)" fill="#0aa8ba"/>
      </g>
    </g>
  </g>
</svg>
