<svg xmlns="http://www.w3.org/2000/svg" width="223.502" height="173.017" viewBox="0 0 223.502 173.017">
  <g id="Link_sent_illustration" data-name="Link sent illustration" transform="translate(-594 -173.4)">
    <text id="_" data-name="**" transform="translate(594 217.013)" fill="#0aa8ba" font-size="38.675" font-family="Roboto-Regular, Roboto" letter-spacing="0.078em"><tspan x="0" y="37">*</tspan></text>
    <text id="_2" data-name="**" transform="translate(777.502 173.4)" fill="#0aa8ba" font-size="38.675" font-family="Roboto-Regular, Roboto" letter-spacing="0.129em"><tspan x="0" y="37">*</tspan></text>
    <g id="black-back-closed-envelope-shape" transform="translate(636.193 239.642)">
      <g id="Group_17734" data-name="Group 17734" transform="translate(0 0)">
        <path id="Path_9648" data-name="Path 9648" d="M136.526,365.038a11.615,11.615,0,0,0,7.952-3l-38.5-38.5c-.924.662-1.819,1.3-2.665,1.916q-4.322,3.184-7.015,4.966a43.222,43.222,0,0,1-7.166,3.64,21.843,21.843,0,0,1-8.343,1.857h-.151a21.835,21.835,0,0,1-8.343-1.857,43.083,43.083,0,0,1-7.166-3.64q-2.693-1.78-7.015-4.966c-.8-.589-1.694-1.235-2.657-1.927L16.946,362.038a11.618,11.618,0,0,0,7.953,3Z" transform="translate(-12.765 -258.263)" fill="#0aa8ba"/>
        <path id="Path_9649" data-name="Path 9649" d="M7.66,205.153a40.205,40.205,0,0,1-7.66-6.6v58.579L33.935,223.2Q23.752,216.09,7.66,205.153Z" transform="translate(0 -164.126)" fill="#0aa8ba"/>
        <path id="Path_9650" data-name="Path 9650" d="M439.647,205.153q-15.494,10.487-26.338,18.059l33.921,33.923v-58.58A41.851,41.851,0,0,1,439.647,205.153Z" transform="translate(-311.335 -164.126)" fill="#0aa8ba"/>
        <path id="Path_9651" data-name="Path 9651" d="M123.765,59.013H12.139q-5.841,0-8.986,3.942A15.3,15.3,0,0,0,.006,72.814q0,4.777,4.17,10.352a37.622,37.622,0,0,0,8.873,8.758q2.578,1.821,15.547,10.807c4.667,3.234,8.726,6.053,12.214,8.486,2.973,2.072,5.537,3.865,7.654,5.354.243.17.625.444,1.132.807.546.393,1.238.891,2.091,1.507q2.464,1.782,4.095,2.882t3.944,2.464a23.006,23.006,0,0,0,4.361,2.048,12.067,12.067,0,0,0,3.791.682h.151a12.07,12.07,0,0,0,3.792-.682,22.955,22.955,0,0,0,4.361-2.048q2.312-1.366,3.944-2.464t4.1-2.882c.851-.616,1.543-1.114,2.09-1.506.508-.364.889-.636,1.134-.808,1.649-1.148,4.219-2.934,7.674-5.333q9.431-6.552,27.816-19.314a36.07,36.07,0,0,0,9.251-9.327,20.063,20.063,0,0,0,3.713-11.45,12.233,12.233,0,0,0-12.134-12.134Z" transform="translate(-0.005 -59.013)" fill="#0aa8ba"/>
      </g>
    </g>
  </g>
</svg>
