<svg id="location" xmlns="http://www.w3.org/2000/svg" width="10.857" height="15.44" viewBox="0 0 10.857 15.44">
  <path id="Path_718" data-name="Path 718" d="M81.428,0A5.433,5.433,0,0,0,76,5.428a5.353,5.353,0,0,0,.814,2.85l4.246,6.949a.429.429,0,0,0,.308.208.45.45,0,0,0,.461-.217l4.258-7.012a5.354,5.354,0,0,0,.769-2.777A5.433,5.433,0,0,0,81.428,0Zm0,8.142a2.714,2.714,0,1,1,2.714-2.714A2.711,2.711,0,0,1,81.428,8.142Z" transform="translate(-76)" fill="#0aa8ba"/>
  <path id="Path_719" data-name="Path 719" d="M256,0V2.714a2.714,2.714,0,0,1,0,5.428v7.3a.448.448,0,0,0,.4-.222l4.258-7.012a5.354,5.354,0,0,0,.769-2.777A5.433,5.433,0,0,0,256,0Z" transform="translate(-250.572)" fill="#0aa8ba"/>
</svg>
