<svg xmlns="http://www.w3.org/2000/svg" width="12.806" height="12.807" viewBox="0 0 12.806 12.807">
  <g id="logout" transform="translate(-0.014)">
    <g id="Group_17581" data-name="Group 17581" transform="translate(0.014)">
      <g id="Group_17580" data-name="Group 17580" transform="translate(0)">
        <path id="Path_9642" data-name="Path 9642" d="M303.975,151.269a.54.54,0,0,0-.116-.174l-1.6-1.6a.534.534,0,1,0-.755.755l.69.69h-2.981a.534.534,0,0,0,0,1.067h2.981l-.69.69a.534.534,0,1,0,.755.755l1.6-1.6a.528.528,0,0,0,.116-.174A.534.534,0,0,0,303.975,151.269Z" transform="translate(-291.209 -145.604)" fill="#0aa8ba"/>
        <path id="Path_9643" data-name="Path 9643" d="M9.085,7.471A.533.533,0,0,0,8.552,8v2.668H6.417V2.134a.534.534,0,0,0-.38-.511L4.184,1.067H8.552V3.735a.534.534,0,1,0,1.067,0V.534A.533.533,0,0,0,9.085,0H.548A.476.476,0,0,0,.493.01.527.527,0,0,0,.266.089C.255.1.24.1.229.106S.223.115.219.118A.529.529,0,0,0,.077.287.436.436,0,0,0,.062.331.506.506,0,0,0,.02.456.332.332,0,0,0,.021.5c0,.011-.007.02-.007.031V11.206a.533.533,0,0,0,.429.523L5.779,12.8a.5.5,0,0,0,.1.011.534.534,0,0,0,.534-.534V11.74H9.085a.533.533,0,0,0,.534-.534V8A.533.533,0,0,0,9.085,7.471Z" transform="translate(-0.014)" fill="#0aa8ba"/>
      </g>
    </g>
  </g>
</svg>
