<svg id="Nearby_Hospitals" data-name="Nearby Hospitals" xmlns="http://www.w3.org/2000/svg" width="65.348" height="56.982" viewBox="0 0 65.348 56.982">
  <g id="Group_17619" data-name="Group 17619" transform="translate(3.31 15.604)">
    <path id="Path_9679" data-name="Path 9679" d="M44.5,195.451V155.03l-18.541,1.277h-.022v39.144Z" transform="translate(-25.933 -155.03)" fill="#beb9dd" fill-rule="evenodd"/>
  </g>
  <g id="Group_17620" data-name="Group 17620" transform="translate(43.476 15.604)">
    <path id="Path_9680" data-name="Path 9680" d="M359.169,156.307l-18.541-1.277v40.421h18.563V156.307C359.184,156.307,359.176,156.311,359.169,156.307Z" transform="translate(-340.628 -155.03)" fill="#beb9dd" fill-rule="evenodd"/>
  </g>
  <g id="Group_17621" data-name="Group 17621" transform="translate(0.957 12.143)">
    <path id="Path_9681" data-name="Path 9681" d="M7.5,130.28a2.377,2.377,0,0,0,2.353,2.369H27.132v-4.738H9.874A2.38,2.38,0,0,0,7.5,130.28Z" transform="translate(-7.5 -127.911)" fill="#eb5468" fill-rule="evenodd"/>
  </g>
  <g id="Group_17622" data-name="Group 17622" transform="translate(44.759 12.143)">
    <path id="Path_9682" data-name="Path 9682" d="M350.685,127.912v4.738h17.279a2.369,2.369,0,0,0-.022-4.738H350.685Z" transform="translate(-350.685 -127.912)" fill="#eb5468" fill-rule="evenodd"/>
  </g>
  <g id="Group_17623" data-name="Group 17623" transform="translate(3.31 16.881)">
    <path id="Path_9683" data-name="Path 9683" d="M25.933,168H39.118c1.9,0,1.574.987,1.574,2.9v33.281h2.52V165.037H25.933Z" transform="translate(-25.933 -165.037)" fill="#a7a2d3" fill-rule="evenodd"/>
  </g>
  <g id="Group_17624" data-name="Group 17624" transform="translate(58.85 12.143)">
    <path id="Path_9684" data-name="Path 9684" d="M463.456,130.281a2.377,2.377,0,0,1-2.353,2.369h3.167a2.369,2.369,0,0,0-.022-4.738h-3.167A2.379,2.379,0,0,1,463.456,130.281Z" transform="translate(-461.082 -127.912)" fill="#e5384f" fill-rule="evenodd"/>
  </g>
  <g id="Group_17625" data-name="Group 17625" transform="translate(44.759 16.881)">
    <path id="Path_9685" data-name="Path 9685" d="M367.942,165.036H350.685V168h12.56c1.091,0,1.553-.022,1.553,1.172V204.18h3.167V165.036Z" transform="translate(-350.685 -165.036)" fill="#a7a2d3" fill-rule="evenodd"/>
  </g>
  <g id="Group_17626" data-name="Group 17626" transform="translate(20.589 4.244)">
    <path id="Path_9686" data-name="Path 9686" d="M185.485,67.479l-12.447-1.451-11.723,1.451v50.329h5.065V103.227H180.42v14.581h5.065V67.479Z" transform="translate(-161.315 -66.028)" fill="#f9f7f8" fill-rule="evenodd"/>
  </g>
  <g id="Group_17627" data-name="Group 17627" transform="translate(7.662 33.781)">
    <path id="Path_9687" data-name="Path 9687" d="M60.035,297.445h8.574V302.9H60.035Z" transform="translate(-60.035 -297.445)" fill="#b1e4f9" fill-rule="evenodd"/>
  </g>
  <g id="Group_17628" data-name="Group 17628" transform="translate(7.662 22.32)">
    <path id="Path_9688" data-name="Path 9688" d="M60.035,207.647h8.574V213.1H60.035Z" transform="translate(-60.035 -207.647)" fill="#b1e4f9" fill-rule="evenodd"/>
  </g>
  <g id="Group_17629" data-name="Group 17629" transform="translate(49.108 22.32)">
    <path id="Path_9689" data-name="Path 9689" d="M384.758,207.647h8.578V213.1h-8.578Z" transform="translate(-384.758 -207.647)" fill="#b1e4f9" fill-rule="evenodd"/>
  </g>
  <g id="Group_17630" data-name="Group 17630" transform="translate(49.108 33.781)">
    <path id="Path_9690" data-name="Path 9690" d="M384.758,297.445h8.578V302.9h-8.578Z" transform="translate(-384.758 -297.445)" fill="#b1e4f9" fill-rule="evenodd"/>
  </g>
  <g id="Group_17631" data-name="Group 17631" transform="translate(49.108 45.246)">
    <path id="Path_9691" data-name="Path 9691" d="M384.758,387.272h8.578v5.449h-8.578Z" transform="translate(-384.758 -387.272)" fill="#b1e4f9" fill-rule="evenodd"/>
  </g>
  <g id="Group_17632" data-name="Group 17632" transform="translate(7.662 45.246)">
    <path id="Path_9692" data-name="Path 9692" d="M60.035,387.272h8.574v5.449H60.035Z" transform="translate(-60.035 -387.272)" fill="#b1e4f9" fill-rule="evenodd"/>
  </g>
  <g id="Group_17633" data-name="Group 17633" transform="translate(7.662 22.32)">
    <path id="Path_9693" data-name="Path 9693" d="M60.035,207.647h8.574v2.017H60.035Z" transform="translate(-60.035 -207.647)" fill="#75cef8" fill-rule="evenodd"/>
  </g>
  <g id="Group_17634" data-name="Group 17634" transform="translate(7.662 33.781)">
    <path id="Path_9694" data-name="Path 9694" d="M60.035,297.445h8.574v2.017H60.035Z" transform="translate(-60.035 -297.445)" fill="#75cef8" fill-rule="evenodd"/>
  </g>
  <g id="Group_17635" data-name="Group 17635" transform="translate(7.662 45.246)">
    <path id="Path_9695" data-name="Path 9695" d="M60.035,387.272h8.574v2.014H60.035Z" transform="translate(-60.035 -387.272)" fill="#75cef8" fill-rule="evenodd"/>
  </g>
  <g id="Group_17636" data-name="Group 17636" transform="translate(49.108 45.246)">
    <path id="Path_9696" data-name="Path 9696" d="M384.758,387.272h8.578v2.014h-8.578Z" transform="translate(-384.758 -387.272)" fill="#75cef8" fill-rule="evenodd"/>
  </g>
  <g id="Group_17637" data-name="Group 17637" transform="translate(49.108 33.781)">
    <path id="Path_9697" data-name="Path 9697" d="M384.758,297.445h8.578v2.017h-8.578Z" transform="translate(-384.758 -297.445)" fill="#75cef8" fill-rule="evenodd"/>
  </g>
  <g id="Group_17638" data-name="Group 17638" transform="translate(49.108 22.32)">
    <path id="Path_9698" data-name="Path 9698" d="M384.758,207.647h8.578v2.017h-8.578Z" transform="translate(-384.758 -207.647)" fill="#75cef8" fill-rule="evenodd"/>
  </g>
  <g id="Group_17639" data-name="Group 17639" transform="translate(20.589 5.696)">
    <path id="Path_9699" data-name="Path 9699" d="M161.315,80.322h18.356c1.782,0,2.364-.178,2.364,1.709v45.7h3.451V77.4h-24.17Z" transform="translate(-161.315 -77.398)" fill="#dddaec" fill-rule="evenodd"/>
  </g>
  <g id="Group_17640" data-name="Group 17640" transform="translate(18.069 12.143)">
    <path id="Path_9700" data-name="Path 9700" d="M141.572,127.912v4.738h2.52v-4.738Z" transform="translate(-141.572 -127.912)" fill="#e5384f" fill-rule="evenodd"/>
  </g>
  <g id="Group_17641" data-name="Group 17641" transform="translate(16.971 0.957)">
    <path id="Path_9701" data-name="Path 9701" d="M161.64,40.274h-26.3a2.369,2.369,0,1,0,0,4.738h26.3a2.369,2.369,0,1,0,0-4.738Z" transform="translate(-132.968 -40.274)" fill="#eb5468" fill-rule="evenodd"/>
  </g>
  <g id="Group_17642" data-name="Group 17642" transform="translate(42.192 0.957)">
    <path id="Path_9702" data-name="Path 9702" d="M330.571,40.274a2.369,2.369,0,1,1,0,4.738h3.451a2.369,2.369,0,1,0,0-4.738Z" transform="translate(-330.571 -40.274)" fill="#e5384f" fill-rule="evenodd"/>
  </g>
  <g id="Group_17643" data-name="Group 17643" transform="translate(25.654 41.444)">
    <path id="Path_9703" data-name="Path 9703" d="M201,357.482h7.018v14.581H201Z" transform="translate(-201.001 -357.482)" fill="#b1e4f9" fill-rule="evenodd"/>
  </g>
  <g id="Group_17644" data-name="Group 17644" transform="translate(32.672 41.444)">
    <path id="Path_9704" data-name="Path 9704" d="M255.986,357.482h7.021v14.581h-7.021Z" transform="translate(-255.986 -357.482)" fill="#b1e4f9" fill-rule="evenodd"/>
  </g>
  <g id="Group_17645" data-name="Group 17645" transform="translate(25.654 41.444)">
    <path id="Path_9705" data-name="Path 9705" d="M201,359.445h7.018v-1.963H201Z" transform="translate(-201.001 -357.482)" fill="#75cef8" fill-rule="evenodd"/>
  </g>
  <g id="Group_17646" data-name="Group 17646" transform="translate(32.672 41.444)">
    <path id="Path_9706" data-name="Path 9706" d="M255.986,357.482v1.963h4.109c1.131,0,.894.334.894,1.524v11.095h2.018V357.482Z" transform="translate(-255.986 -357.482)" fill="#75cef8" fill-rule="evenodd"/>
  </g>
  <g id="Group_17647" data-name="Group 17647" transform="translate(26.349 12.277)">
    <path id="Path_9707" data-name="Path 9707" d="M214.747,128.963h-3.964a.344.344,0,0,0-.342.345v3.646h-3.654a.345.345,0,0,0-.346.345v3.955a.342.342,0,0,0,.346.341h3.654v3.65a.341.341,0,0,0,.342.341h3.964a.344.344,0,0,0,.346-.341v-3.65h3.654a.344.344,0,0,0,.346-.341V133.3a.347.347,0,0,0-.346-.345h-3.654v-3.646A.347.347,0,0,0,214.747,128.963Z" transform="translate(-206.442 -128.963)" fill="#eb5468" fill-rule="evenodd"/>
  </g>
  <g id="Group_17648" data-name="Group 17648" transform="translate(30.945 12.277)">
    <path id="Path_9708" data-name="Path 9708" d="M246.162,128.963h-2.884a14.118,14.118,0,0,1,1.062,5.584,12.309,12.309,0,0,1-1.887,7.039h3.709a.344.344,0,0,0,.345-.341v-3.65h3.654a.344.344,0,0,0,.346-.341V133.3a.347.347,0,0,0-.346-.345h-3.654v-3.646A.347.347,0,0,0,246.162,128.963Z" transform="translate(-242.453 -128.963)" fill="#e5384f" fill-rule="evenodd"/>
  </g>
  <g id="Group_17649" data-name="Group 17649" transform="translate(0 0)">
    <path id="Path_9709" data-name="Path 9709" d="M387.751,290.9a.957.957,0,0,0-.957-.957h-8.578a.957.957,0,0,0-.957.957v5.453a.957.957,0,0,0,.957.957h8.578a.957.957,0,0,0,.957-.957Zm-1.914,4.5h-6.663v-3.539h6.663Z" transform="translate(-329.108 -257.121)"/>
    <path id="Path_9710" data-name="Path 9710" d="M386.794,379.772h-8.578a.957.957,0,0,0-.957.957v5.449a.957.957,0,0,0,.957.957h8.578a.957.957,0,0,0,.957-.957v-5.449A.957.957,0,0,0,386.794,379.772Zm-.957,5.449h-6.663v-3.535h6.663Z" transform="translate(-329.108 -335.483)"/>
    <path id="Path_9711" data-name="Path 9711" d="M65.348,47.286a3.333,3.333,0,0,0-3.332-3.326h-16.3V39.425a3.326,3.326,0,0,0-.074-6.651h-26.3a3.326,3.326,0,1,0,0,6.653h.286V43.96H3.332a3.326,3.326,0,0,0-.979,6.506V88.8a.957.957,0,0,0,.957.957H62.039A.957.957,0,0,0,63,88.8V70.836a.957.957,0,1,0-1.915,0V87.842H45.716V50.612H61.081V66.4A.957.957,0,0,0,63,66.4V50.466a3.333,3.333,0,0,0,2.353-3.18ZM17.928,36.1a1.416,1.416,0,0,1,1.417-1.412h26.3a1.412,1.412,0,1,1,0,2.824h-26.3A1.416,1.416,0,0,1,17.928,36.1ZM1.915,47.286a1.416,1.416,0,0,1,1.417-1.412h16.3V48.7H3.332a1.416,1.416,0,0,1-1.417-1.412Zm2.353,3.326H19.632V87.842H4.267ZM21.546,39.427H43.8V87.842H40.651V74.218a.957.957,0,0,0-.957-.957H25.654a.957.957,0,0,0-.957.957V87.842H21.546ZM33.63,75.175h5.107V87.842H33.63ZM31.715,87.842h-5.1V75.175h5.1ZM62.017,48.7h-16.3V45.874h16.3a1.412,1.412,0,1,1,0,2.824Z" transform="translate(0 -32.774)"/>
    <path id="Path_9712" data-name="Path 9712" d="M62.066,200.147H53.492a.957.957,0,0,0-.957.957v5.453a.957.957,0,0,0,.957.957h8.574a.957.957,0,0,0,.957-.957V201.1A.957.957,0,0,0,62.066,200.147Zm-.957,5.453h-6.66v-3.539h6.66Z" transform="translate(-45.83 -178.785)"/>
    <path id="Path_9713" data-name="Path 9713" d="M62.066,289.945H53.492a.957.957,0,0,0-.957.957v5.453a.957.957,0,0,0,.957.957h8.574a.957.957,0,0,0,.957-.957V290.9A.957.957,0,0,0,62.066,289.945Zm-.957,5.453h-6.66v-3.539h6.66Z" transform="translate(-45.83 -257.121)"/>
    <path id="Path_9714" data-name="Path 9714" d="M62.066,379.772H53.492a.957.957,0,0,0-.957.957v5.449a.957.957,0,0,0,.957.957h8.574a.957.957,0,0,0,.957-.957v-5.449A.957.957,0,0,0,62.066,379.772Zm-.957,5.449h-6.66v-3.535h6.66Z" transform="translate(-45.83 -335.483)"/>
    <path id="Path_9715" data-name="Path 9715" d="M387.751,201.1a.957.957,0,0,0-.957-.957h-8.578a.957.957,0,0,0-.957.957v5.453a.957.957,0,0,0,.957.957h8.578a.957.957,0,0,0,.957-.957Zm-1.914,4.5h-6.663v-3.539h6.663Z" transform="translate(-329.108 -178.785)"/>
    <path id="Path_9716" data-name="Path 9716" d="M200.245,132.01h2.7V134.7a1.3,1.3,0,0,0,1.3,1.3H208.2a1.3,1.3,0,0,0,1.3-1.3V132.01h2.7a1.3,1.3,0,0,0,1.3-1.3v-3.955a1.3,1.3,0,0,0-1.3-1.3h-2.7v-2.689a1.3,1.3,0,0,0-1.3-1.3h-3.964a1.3,1.3,0,0,0-1.3,1.3v2.689h-2.7a1.3,1.3,0,0,0-1.3,1.3v3.955A1.3,1.3,0,0,0,200.245,132.01Zm.612-4.64H203.9a.957.957,0,0,0,.957-.957v-3.034h2.736v3.034a.957.957,0,0,0,.957.957h3.043V130.1H208.55a.957.957,0,0,0-.957.957v3.034h-2.736v-3.034a.957.957,0,0,0-.957-.957h-3.043Z" transform="translate(-173.55 -110.144)"/>
    <path id="Path_9717" data-name="Path 9717" d="M225.853,259.075h-8.091a.957.957,0,1,0,0,1.915h8.091a.957.957,0,0,0,0-1.915Z" transform="translate(-189.133 -230.191)"/>
    <path id="Path_9718" data-name="Path 9718" d="M225.853,294.494h-8.091a.957.957,0,1,0,0,1.915h8.091a.957.957,0,0,0,0-1.915Z" transform="translate(-189.133 -261.09)"/>
  </g>
</svg>
