<svg xmlns="http://www.w3.org/2000/svg" width="12.589" height="12.589" viewBox="0 0 12.589 12.589">
  <path id="phone" d="M13.184,10.064c-.034-.027-2.533-1.828-3.218-1.7-.327.058-.514.281-.89.728-.06.072-.206.245-.319.368a5.252,5.252,0,0,1-.693-.282A5.749,5.749,0,0,1,5.412,6.527a5.228,5.228,0,0,1-.282-.693c.123-.113.3-.259.37-.321.445-.373.668-.561.726-.889.119-.68-1.681-3.2-1.7-3.218A.961.961,0,0,0,3.812,1C3.082,1,1,3.7,1,4.156c0,.026.038,2.714,3.352,6.085,3.368,3.31,6.055,3.348,6.081,3.348.455,0,3.156-2.082,3.156-2.812a.958.958,0,0,0-.4-.713Z" transform="translate(-1 -1)" fill="#0aa8ba"/>
</svg>
