<svg id="pin" xmlns="http://www.w3.org/2000/svg" width="18.223" height="25.918" viewBox="0 0 18.223 25.918">
  <path id="Path_718" data-name="Path 718" d="M85.112,0A9.119,9.119,0,0,0,76,9.112,8.985,8.985,0,0,0,77.367,13.9l7.127,11.664a.72.72,0,0,0,.516.349.756.756,0,0,0,.774-.364l7.148-11.77a8.986,8.986,0,0,0,1.291-4.662A9.119,9.119,0,0,0,85.112,0Zm0,13.667a4.556,4.556,0,1,1,4.556-4.556A4.55,4.55,0,0,1,85.112,13.667Z" transform="translate(-76)" fill="#fd003a"/>
  <path id="Path_719" data-name="Path 719" d="M256,0V4.556a4.556,4.556,0,0,1,0,9.112v12.25a.752.752,0,0,0,.673-.373l7.148-11.77a8.986,8.986,0,0,0,1.291-4.662A9.119,9.119,0,0,0,256,0Z" transform="translate(-246.888)" fill="#e50027"/>
</svg>
