<svg xmlns="http://www.w3.org/2000/svg" width="60.4" height="60.4" viewBox="0 0 60.4 60.4">
  <g id="Register_Case_screen_illustration" data-name="Register Case screen illustration" transform="translate(-1.003 -1.004)">
    <path id="Path_9719" data-name="Path 9719" d="M30.193,2A28.193,28.193,0,1,1,2,30.193,28.206,28.206,0,0,1,30.193,2Z" transform="translate(1.011 1.01)" fill="#70c1b3" fill-rule="evenodd"/>
    <path id="Path_9720" data-name="Path 9720" d="M8,18.069H18.069V8H30.152V18.069H40.221V30.152H30.152V40.221H18.069V30.152H8Z" transform="translate(7.094 7.093)" fill="#ff1654" fill-rule="evenodd"/>
    <path id="Path_9721" data-name="Path 9721" d="M17,3.034c12.55,3.834,23.551,14.56,23.159,34.452,0,0,7.048-13.09-3.021-25.173S17,3.034,17,3.034Z" transform="translate(16.218 1.772)" fill="#f3ffbd" fill-rule="evenodd"/>
    <path id="Path_9722" data-name="Path 9722" d="M28.276,50.507C15.72,46.8-.233,34.618,9.014,8c0,0-15.1,14.546-.876,33.228,9.529,12.514,20.138,9.28,20.138,9.28Z" transform="translate(1.045 7.093)" fill="#247ba0" fill-rule="evenodd"/>
    <path id="Path_9723" data-name="Path 9723" d="M31.2,1A30.2,30.2,0,1,0,61.4,31.195,30.213,30.213,0,0,0,31.2,1Zm0,4.012A26.188,26.188,0,1,1,5.017,31.195,26.162,26.162,0,0,1,31.2,5.016Zm-6.033,8.059a2.023,2.023,0,0,0-2.006,2.014v8.067H15.09a2.023,2.023,0,0,0-2.014,2.006V37.248a2.023,2.023,0,0,0,2.014,2.006h8.067v8.063a2.023,2.023,0,0,0,2.006,2.014H37.249a2.023,2.023,0,0,0,2.006-2.014V39.254h8.063a2.023,2.023,0,0,0,2.014-2.006V25.162a2.023,2.023,0,0,0-2.014-2.006H39.255V15.089a2.023,2.023,0,0,0-2.006-2.014ZM27.168,17.1h8.055v8.059a2.023,2.023,0,0,0,2.014,2.006H45.3v8.055H37.237a2.022,2.022,0,0,0-2.014,2.014V45.3H27.168V37.236a2.023,2.023,0,0,0-2.006-2.014H17.1V27.167h8.059a2.022,2.022,0,0,0,2.006-2.006Z" transform="translate(0 0)" fill-rule="evenodd"/>
  </g>
</svg>
