<svg xmlns="http://www.w3.org/2000/svg" width="223.502" height="186.249" viewBox="0 0 223.502 186.249">
  <g id="Reset_Password_illustration" data-name="Reset Password illustration" transform="translate(-76 -86.641)">
    <text id="_" data-name="**" transform="translate(76 130.253)" fill="#0aa8ba" font-size="38.675" font-family="Roboto-Regular, Roboto" letter-spacing="0.078em"><tspan x="0" y="37">*</tspan></text>
    <text id="_2" data-name="**" transform="translate(259.502 86.641)" fill="#0aa8ba" font-size="38.675" font-family="Roboto-Regular, Roboto" letter-spacing="0.129em"><tspan x="0" y="37">*</tspan></text>
    <g id="Group_17111" data-name="Group 17111" transform="translate(-2823.233 -1442.48)">
      <rect id="Rectangle_245" data-name="Rectangle 245" width="138.945" height="22.983" transform="translate(2941.079 1660.767)" fill="#fff"/>
      <rect id="Rectangle_246" data-name="Rectangle 246" width="19.849" height="15.671" transform="translate(2965.107 1632.56)" fill="#fff"/>
      <g id="Page-1" transform="translate(2939.233 1572.733)">
        <g id="_010---Secure-Password" data-name="010---Secure-Password">
          <path id="Shape" d="M109.883,29.641A7.641,7.641,0,0,0,102.242,22h-86.6A7.641,7.641,0,0,0,8,29.641V44.924H109.883Zm-86.6,2.547H18.188v5.094a2.547,2.547,0,1,1-5.094,0V29.641a2.547,2.547,0,0,1,2.547-2.547h7.641a2.547,2.547,0,1,1,0,5.094Z" transform="translate(12.377 34.036)" fill="#0aa8ba"/>
          <path id="Shape-2" data-name="Shape" d="M8,62.283a7.641,7.641,0,0,0,7.641,7.641h86.6a7.641,7.641,0,0,0,7.641-7.641V47H8Z" transform="translate(12.377 72.713)" fill="#0aa8ba"/>
          <path id="Shape-3" data-name="Shape" d="M140.09,33H2.547A2.547,2.547,0,0,0,0,35.547V61.018a2.547,2.547,0,0,0,2.547,2.547H140.09a2.547,2.547,0,0,0,2.547-2.547V35.547A2.547,2.547,0,0,0,140.09,33ZM24.337,51.258A2.547,2.547,0,0,1,21.51,55.5L17.83,53.04v2.883a2.547,2.547,0,1,1-5.094,0V53.04L9.055,55.5a2.547,2.547,0,0,1-2.827-4.238l4.47-2.975-4.47-2.975a2.547,2.547,0,0,1,2.827-4.238l3.681,2.455V40.641a2.547,2.547,0,1,1,5.094,0v2.883l3.681-2.455a2.547,2.547,0,1,1,2.827,4.238l-4.47,2.975Zm28.018,0A2.547,2.547,0,0,1,49.528,55.5L45.848,53.04v2.883a2.547,2.547,0,1,1-5.094,0V53.04L37.073,55.5a2.547,2.547,0,1,1-2.827-4.238l4.47-2.975-4.462-2.975a2.547,2.547,0,1,1,2.827-4.238l3.673,2.455V40.641a2.547,2.547,0,1,1,5.094,0v2.883l3.681-2.455a2.547,2.547,0,1,1,2.827,4.238l-4.47,2.975Zm28.018,0A2.547,2.547,0,1,1,77.546,55.5L73.866,53.04v2.883a2.547,2.547,0,1,1-5.094,0V53.04L65.091,55.5a2.547,2.547,0,0,1-2.827-4.238l4.47-2.975-4.462-2.975A2.547,2.547,0,1,1,65.1,41.069l3.673,2.455V40.641a2.547,2.547,0,1,1,5.094,0v2.883l3.681-2.455a2.547,2.547,0,1,1,2.827,4.238L75.9,48.283Zm28.018,0a2.547,2.547,0,0,1-2.827,4.238l-3.681-2.455v2.883a2.547,2.547,0,1,1-5.094,0V53.04L93.109,55.5a2.547,2.547,0,0,1-2.827-4.238l4.47-2.975-4.462-2.975a2.547,2.547,0,0,1,2.827-4.238l3.673,2.455V40.641a2.547,2.547,0,1,1,5.094,0v2.883l3.681-2.455a2.547,2.547,0,0,1,2.827,4.238l-4.47,2.975ZM135,58.471H119.713a2.547,2.547,0,0,1,0-5.094H135a2.547,2.547,0,0,1,0,5.094Z" transform="translate(0 51.054)" fill="#0aa8ba"/>
          <path id="Shape-4" data-name="Shape" d="M23.188,38.206a28.018,28.018,0,1,1,56.036,0V50.942H89.413V38.206a38.206,38.206,0,1,0-76.413,0V50.942H23.188Z" transform="translate(20.112)" fill="#0aa8ba"/>
        </g>
      </g>
    </g>
  </g>
</svg>
