<svg xmlns="http://www.w3.org/2000/svg" width="15" height="14.309" viewBox="0 0 15 14.309">
  <g id="Speciality" transform="translate(0 -11.796)">
    <g id="Group_1227" data-name="Group 1227" transform="translate(0 11.796)">
      <path id="Path_7264" data-name="Path 7264" d="M14.979,17.229a.439.439,0,0,0-.355-.3l-4.65-.676-2.08-4.214a.439.439,0,0,0-.788,0l-2.08,4.214-4.65.676a.439.439,0,0,0-.244.75L3.5,20.96,2.7,25.591a.439.439,0,0,0,.638.463L7.5,23.868l4.159,2.187a.439.439,0,0,0,.638-.463L11.5,20.96l3.365-3.28A.439.439,0,0,0,14.979,17.229Z" transform="translate(0 -11.796)" fill="#0aa8ba"/>
    </g>
  </g>
</svg>
