<svg xmlns="http://www.w3.org/2000/svg" width="128.815" height="131.742" viewBox="0 0 128.815 131.742">
  <g id="Success" transform="translate(-31.93 -25.5)">
    <g id="Group_13361" data-name="Group 13361" transform="translate(31.93 25.5)">
      <path id="Path_61" data-name="Path 61" d="M454.858,115.5a2.928,2.928,0,1,1-2.928,2.928A2.929,2.929,0,0,1,454.858,115.5Z" transform="translate(-328.971 -89.152)" fill="#f0f3f7"/>
      <path id="Path_62" data-name="Path 62" d="M454.858,375.5a2.928,2.928,0,1,1-2.928,2.928A2.929,2.929,0,0,1,454.858,375.5Z" transform="translate(-328.971 -273.034)" fill="#f0f3f7"/>
      <path id="Path_63" data-name="Path 63" d="M397.785,435.5a5.855,5.855,0,1,1-5.855,5.855A5.854,5.854,0,0,1,397.785,435.5Z" transform="translate(-286.536 -315.468)" fill="#f0f3f7"/>
      <path id="Path_64" data-name="Path 64" d="M384.858,25.5a2.928,2.928,0,1,1-2.928,2.928A2.929,2.929,0,0,1,384.858,25.5Z" transform="translate(-279.464 -25.5)" fill="#f0f3f7"/>
      <path id="Path_65" data-name="Path 65" d="M110.482,55.5a58.552,58.552,0,1,0,58.552,58.552A58.551,58.551,0,0,0,110.482,55.5Z" transform="translate(-46.075 -46.717)" fill="#0aa8ba"/>
      <path id="Path_66" data-name="Path 66" d="M145.844,193.328a43.914,43.914,0,1,1,43.914-43.914A43.915,43.915,0,0,1,145.844,193.328Z" transform="translate(-81.437 -82.079)" fill="#fff"/>
      <path id="Path_67" data-name="Path 67" d="M217.117,204.076a5.853,5.853,0,0,1,0,8.279l-20.7,20.7-8.279,8.279-8.282-8.279-6.209-6.212a5.854,5.854,0,0,1,8.279-8.28l6.212,6.209,20.7-20.7a5.852,5.852,0,0,1,8.279,0Z" transform="translate(-130.944 -150.582)" fill="#0aa8ba"/>
      <path id="Path_68" data-name="Path 68" d="M94.858,455.5a2.928,2.928,0,1,1-2.928,2.928A2.929,2.929,0,0,1,94.858,455.5Z" transform="translate(-74.364 -329.613)" fill="#f0f3f7"/>
      <path id="Path_69" data-name="Path 69" d="M59.249,45.5a7.319,7.319,0,1,1-7.319,7.319A7.318,7.318,0,0,1,59.249,45.5Z" transform="translate(-46.075 -39.645)" fill="#f0f3f7"/>
      <path id="Path_70" data-name="Path 70" d="M34.858,125.5a2.928,2.928,0,1,1-2.928,2.928A2.929,2.929,0,0,1,34.858,125.5Z" transform="translate(-31.93 -96.224)" fill="#f0f3f7"/>
      <path id="Path_71" data-name="Path 71" d="M34.858,375.5a2.928,2.928,0,1,1-2.928,2.928A2.929,2.929,0,0,1,34.858,375.5Z" transform="translate(-31.93 -273.034)" fill="#f0f3f7"/>
      <g id="Group_13360" data-name="Group 13360" transform="translate(29.276 23.421)">
        <path id="Path_72" data-name="Path 72" d="M279.989,248.428a2.928,2.928,0,0,0-5.855,0A29.309,29.309,0,0,1,244.858,277.7a2.928,2.928,0,0,0-2.928,2.928v11.611c.968.064,1.944.1,2.928.1s1.959-.036,2.928-.1v-8.8A35.18,35.18,0,0,0,279.989,248.428Z" transform="translate(-209.726 -204.514)" fill="#d0dce7"/>
        <path id="Path_73" data-name="Path 73" d="M131.93,149.414a2.928,2.928,0,1,0,5.855,0,29.309,29.309,0,0,1,29.276-29.276,2.928,2.928,0,0,0,2.928-2.928V105.6c-.968-.064-1.944-.1-2.928-.1s-1.96.036-2.928.1v8.8A35.18,35.18,0,0,0,131.93,149.414Z" transform="translate(-131.93 -105.5)" fill="#d0dce7"/>
      </g>
    </g>
  </g>
</svg>
