<svg id="Support" xmlns="http://www.w3.org/2000/svg" width="56.982" height="56.982" viewBox="0 0 56.982 56.982">
  <g id="Group_17650" data-name="Group 17650" transform="translate(1.113 18.525)">
    <path id="Path_9724" data-name="Path 9724" d="M20.674,191.208l-3.633-3.866a6.694,6.694,0,0,1-1.816-4.584V169.067a2.613,2.613,0,0,0-2.047-2.551h0A2.613,2.613,0,0,0,10,169.067v17.256a9.724,9.724,0,0,0,1.8,5.629l1.985,2.8,4.748,6.689L20.2,203.8H32.862l-1.823-8.691a15.363,15.363,0,0,0-6.463-9.595l-3.893-2.618a2.79,2.79,0,0,0-3.645.465h0a3,3,0,0,0,.063,4.052c2.132,2.259,5.3,5.637,5.3,5.637" transform="translate(-10 -166.453)" fill="#ffcdac"/>
    <path id="Path_9725" data-name="Path 9725" d="M308.769,191.208l3.633-3.866a6.694,6.694,0,0,0,1.816-4.584V169.067a2.613,2.613,0,0,1,2.047-2.551h0a2.613,2.613,0,0,1,3.179,2.551v17.256a9.725,9.725,0,0,1-1.8,5.629l-1.985,2.8-4.748,6.689-1.675,2.36H296.581l1.823-8.691a15.363,15.363,0,0,1,6.463-9.595l3.893-2.618a2.79,2.79,0,0,1,3.645.465h0a3,3,0,0,1-.063,4.052c-2.132,2.259-5.3,5.637-5.3,5.637" transform="translate(-264.686 -166.453)" fill="#ffcdac"/>
  </g>
  <g id="Group_17651" data-name="Group 17651" transform="translate(11.507 19.99)">
    <path id="Path_9726" data-name="Path 9726" d="M280.137,183.225a4.107,4.107,0,0,1,2-1.148l2.842-.681v-1.735h3.47V181.4h0l2.834.677a4.118,4.118,0,0,1,3.161,4v2.079h-6.283Z" transform="translate(-260.466 -179.656)" fill="#7d9bff"/>
    <path id="Path_9727" data-name="Path 9727" d="M117.7,183.174a4.107,4.107,0,0,0-2-1.148l-2.842-.681v-1.735h-3.47v1.74h0l-2.834.677a4.118,4.118,0,0,0-3.161,4v2.079h6.283Z" transform="translate(-103.39 -179.611)" fill="#7d9bff"/>
  </g>
  <path id="Path_9728" data-name="Path 9728" d="M167.58,211.07l-3.958.949a5.735,5.735,0,0,0-4.4,5.577v4h21.541v-4a5.735,5.735,0,0,0-4.4-5.578l-3.948-.943" transform="translate(-141.503 -187.579)" fill="#78d2fa"/>
  <path id="Path_9729" data-name="Path 9729" d="M239.146,189.357v2.424l-2.416,5.494-2.418-5.5v-2.417" transform="translate(-208.236 -168.283)" fill="#ffb487"/>
  <path id="Path_9730" data-name="Path 9730" d="M218.491,114.551V117.9a5.388,5.388,0,0,1-5.388,5.388h0a5.388,5.388,0,0,1-5.388-5.388v-3.347" transform="translate(-184.599 -101.802)" fill="#ffcdac"/>
  <path id="Path_9731" data-name="Path 9731" d="M213.1,64h0a5.388,5.388,0,0,0-5.388,5.388v1.3h2.634a5.919,5.919,0,0,0,4.537-2.117h0l3.6,2.117v-1.3A5.388,5.388,0,0,0,213.1,64Z" transform="translate(-184.599 -56.877)" fill="#bebebe"/>
  <path id="Path_9732" data-name="Path 9732" d="M145.851,94.41v-.931a3.868,3.868,0,0,0-3.868-3.868h0a3.868,3.868,0,0,0-3.868,3.868v.931h2.666a9.222,9.222,0,0,0,4.74-1.312h0" transform="translate(-122.744 -79.638)" fill="#f5b955"/>
  <path id="Path_9733" data-name="Path 9733" d="M145.851,125.9v2.4a3.868,3.868,0,0,1-3.868,3.868h0a3.868,3.868,0,0,1-3.868-3.868v-2.4" transform="translate(-122.744 -111.892)" fill="#ffcdac"/>
  <path id="Path_9734" data-name="Path 9734" d="M304.5,94.461V93.53a3.868,3.868,0,0,1,3.868-3.868h0a3.868,3.868,0,0,1,3.868,3.868v.931H309.57a9.222,9.222,0,0,1-4.74-1.312h0" transform="translate(-270.611 -79.683)" fill="#f5b955"/>
  <path id="Path_9735" data-name="Path 9735" d="M304.5,125.955v2.4a3.868,3.868,0,0,0,3.868,3.868h0a3.868,3.868,0,0,0,3.868-3.868v-2.4" transform="translate(-270.611 -111.937)" fill="#ffcdac"/>
  <path id="Path_9736" data-name="Path 9736" d="M78.644,471.26a1.113,1.113,0,1,0-1.815,1.288l1.676,2.36a1.113,1.113,0,1,0,1.815-1.289Z" transform="translate(-68.096 -418.395)"/>
  <path id="Path_9737" data-name="Path 9737" d="M23.241,185.989A16.39,16.39,0,0,0,16.31,175.7l-3.893-2.618a3.916,3.916,0,0,0-4.964.507v-13.41a3.726,3.726,0,0,0-6.057-2.906A3.708,3.708,0,0,0,0,160.178v17.256a10.78,10.78,0,0,0,2,6.274l1.985,2.8A1.113,1.113,0,1,0,5.8,185.215l-1.985-2.8a8.566,8.566,0,0,1-1.59-4.985V160.178a1.5,1.5,0,0,1,3,0v13.691a7.776,7.776,0,0,0,2.006,5.221c.055.066.112.132.173.2.739.783,1.608,1.706,2.427,2.576l1.146,1.219.011.011,1.718,1.828a1.113,1.113,0,1,0,1.622-1.524c-.02-.022-1.323-1.409-2.811-2.99l-2.552-2.716-.019-.021a1.878,1.878,0,0,1,.036-2.461,1.683,1.683,0,0,1,2.191-.28l3.893,2.618a14.175,14.175,0,0,1,6,8.9l1.824,8.691a1.113,1.113,0,1,0,2.178-.457Z" transform="translate(-0.001 -139.039)"/>
  <path id="Path_9738" data-name="Path 9738" d="M57.9,442.042a1.113,1.113,0,0,0-1.812,1.293l.007.01a1.113,1.113,0,1,0,1.812-1.293Z" transform="translate(-49.665 -392.431)"/>
  <path id="Path_9739" data-name="Path 9739" d="M310.274,157.275a3.726,3.726,0,0,0-6.057,2.906v13.41a3.916,3.916,0,0,0-4.964-.507l-3.893,2.618a16.39,16.39,0,0,0-6.932,10.29l-1.823,8.691a1.113,1.113,0,1,0,2.178.457l1.823-8.691a14.176,14.176,0,0,1,6-8.9l3.893-2.618a1.683,1.683,0,0,1,2.191.28,1.878,1.878,0,0,1,.039,2.459l-.021.024L297.34,183.4a1.113,1.113,0,1,0,1.622,1.524c.015-.016,4.563-4.851,5.3-5.635.06-.064.117-.13.173-.2a7.777,7.777,0,0,0,2.006-5.221V160.18a1.5,1.5,0,1,1,3,0v17.256a8.566,8.566,0,0,1-1.59,4.985l-8.408,11.845a1.113,1.113,0,1,0,1.815,1.289l8.408-11.845a10.78,10.78,0,0,0,2-6.274V160.18A3.709,3.709,0,0,0,310.274,157.275Z" transform="translate(-254.686 -139.041)"/>
  <path id="Path_9740" data-name="Path 9740" d="M122.258,83.122a1.113,1.113,0,0,0,1.113-1.113v-4c0-.138-.006-.275-.014-.411h5.129a1.113,1.113,0,0,0,1.113-1.113V74.408a5.214,5.214,0,0,0-4.015-5.087l-1.98-.473v-.355a4.978,4.978,0,0,0,2.131-4.081V61.837a4.977,4.977,0,0,0-8.213-3.786,6.5,6.5,0,0,0-12.044.009,4.977,4.977,0,0,0-8.223,3.777v2.574a4.978,4.978,0,0,0,2.131,4.081v.355l-1.98.473a5.214,5.214,0,0,0-4.015,5.087v2.079A1.113,1.113,0,0,0,94.5,77.6h5.114c-.008.135-.013.271-.013.407v4a1.113,1.113,0,0,0,1.113,1.113h6.69a1.113,1.113,0,0,0,0-2.226h-1.15V78.6a1.113,1.113,0,0,0-2.226,0v2.3h-2.2V78.007a4.608,4.608,0,0,1,3.545-4.5l3.054-.732,2.044,4.65a1.113,1.113,0,0,0,1.019.665h0a1.113,1.113,0,0,0,1.019-.665l2.042-4.643,3.044.727a4.608,4.608,0,0,1,3.548,4.5V80.9h-2.2V78.6a1.113,1.113,0,1,0-2.226,0v2.3h-1.261a1.113,1.113,0,1,0,0,2.226Zm-14.3-13.5a5.222,5.222,0,0,0-.891-.3l-1.988-.476V68.5a5.021,5.021,0,0,0,.965-.881,6.552,6.552,0,0,0,1.915,1.919Zm-8.48-5.208v-.53h1.553a10.339,10.339,0,0,0,3.957-.788v1.318a2.755,2.755,0,0,1-5.51,0Zm7.746-.325V62.91h1.521a7.012,7.012,0,0,0,4.729-1.827l2.3,1.348v1.817a4.274,4.274,0,0,1-8.545-.163Zm7.793,5.537v-.075a6.55,6.55,0,0,0,1.931-1.924,5.02,5.02,0,0,0,.956.872v.347l-1.988.476A5.237,5.237,0,0,0,115.02,69.623ZM118,64.411v-.162c0-.054,0-.108,0-.163v-.991a10.338,10.338,0,0,0,3.953.786h1.553v.53a2.755,2.755,0,1,1-5.51,0Zm2.755-5.329a2.759,2.759,0,0,1,2.749,2.573h-1.547a8.112,8.112,0,0,1-3.732-.909A2.759,2.759,0,0,1,120.753,59.082ZM107.227,60.5a4.275,4.275,0,0,1,8.5-.679l-1.874-1.1a1.113,1.113,0,0,0-1.417.245,4.8,4.8,0,0,1-3.684,1.719h-1.521V60.5Zm-4.991-1.419a2.759,2.759,0,0,1,2.53,1.664,8.112,8.112,0,0,1-3.732.909H99.487A2.759,2.759,0,0,1,102.236,59.082Zm2.62,12.265a6.825,6.825,0,0,0-4.729,4.026H95.616v-.966a3,3,0,0,1,2.307-2.923l2.834-.677a1.113,1.113,0,0,0,.854-1.082v-.374a4.831,4.831,0,0,0,1.244,0v.318c0,.017,0,.033,0,.05a1.115,1.115,0,0,0,.9,1.1l1.66.4Zm6.636,2.87-1.305-2.97v-.794a6.523,6.523,0,0,0,2.608,0v.8Zm6.622-2.867-.559-.133,1.669-.4a1.114,1.114,0,0,0,.909-1.1c0-.009,0-.017,0-.026v-.341a4.831,4.831,0,0,0,1.244,0v.374a1.113,1.113,0,0,0,.854,1.082l2.834.677a3,3,0,0,1,2.307,2.923v.966h-4.526A6.824,6.824,0,0,0,118.114,71.349Z" transform="translate(-82.996 -47.99)"/>
  <path id="Path_9741" data-name="Path 9741" d="M247.113,295.67a1.112,1.112,0,1,0,.787.325A1.118,1.118,0,0,0,247.113,295.67Z" transform="translate(-218.622 -262.764)"/>
  <path id="Path_9742" data-name="Path 9742" d="M247.107,3.891a1.113,1.113,0,0,0,1.113-1.113V1.113a1.113,1.113,0,0,0-2.226,0V2.778A1.113,1.113,0,0,0,247.107,3.891Z" transform="translate(-218.617)"/>
  <path id="Path_9743" data-name="Path 9743" d="M193.093,22.279a1.113,1.113,0,1,0,1.573-1.575L193.5,19.539a1.113,1.113,0,1,0-1.573,1.575Z" transform="translate(-170.276 -17.075)"/>
  <path id="Path_9744" data-name="Path 9744" d="M290.859,22.855a1.109,1.109,0,0,0,.787-.326l1.158-1.16A1.113,1.113,0,1,0,291.23,19.8l-1.158,1.16a1.113,1.113,0,0,0,.787,1.9Z" transform="translate(-257.499 -17.303)"/>
</svg>
