<svg xmlns="http://www.w3.org/2000/svg" width="12.064" height="12.063" viewBox="0 0 12.064 12.063">
  <path id="Time__user_history" data-name="Time__user history" d="M13.67,5.141a6.032,6.032,0,1,0,0,8.531A6.034,6.034,0,0,0,13.67,5.141ZM4.58,9.633a.232.232,0,1,1,.183-.183A.232.232,0,0,1,4.58,9.633Zm.76,2.384a.231.231,0,1,1,.067-.246A.232.232,0,0,1,5.339,12.016Zm.067-4.973A.231.231,0,1,1,5.339,6.8.232.232,0,0,1,5.406,7.043ZM7.189,13.7a.231.231,0,1,1-.067-.246A.232.232,0,0,1,7.189,13.7ZM7.123,5.361a.231.231,0,1,1,.067-.246A.232.232,0,0,1,7.123,5.361ZM8.149,7.574a.232.232,0,0,1,.4-.241L9.524,9.14a.94.94,0,0,1,.113.441v3.538a.232.232,0,0,1-.464,0V9.58a.477.477,0,0,0-.055-.22Zm1.3,6.93a.232.232,0,1,1,.183-.183A.232.232,0,0,1,9.451,14.5Zm0-9.743a.232.232,0,1,1,.183-.183A.232.232,0,0,1,9.451,4.761ZM11.994,13.8a.231.231,0,1,1,.067-.246A.232.232,0,0,1,11.994,13.8Zm.067-8.54a.231.231,0,1,1-.067-.246A.232.232,0,0,1,12.061,5.26Zm1.783,6.655a.231.231,0,1,1-.067-.246A.232.232,0,0,1,13.844,11.915Zm-.067-4.77a.231.231,0,1,1,.067-.246A.232.232,0,0,1,13.778,7.145Zm.545,2.488a.232.232,0,1,1,.183-.183A.232.232,0,0,1,14.323,9.633Z" transform="translate(-3.372 -3.375)" fill="#0aa8ba"/>
</svg>
