<svg xmlns="http://www.w3.org/2000/svg" width="16.173" height="21.025" viewBox="0 0 16.173 21.025">
  <path id="Password" d="M20.9,10.653H19.688V8.292a4.852,4.852,0,1,0-9.7-.066v2.426H8.772A2.028,2.028,0,0,0,6.75,12.674v9.7A2.028,2.028,0,0,0,8.772,24.4H20.9a2.028,2.028,0,0,0,2.022-2.022v-9.7A2.028,2.028,0,0,0,20.9,10.653ZM15.544,16.96v3.477a.725.725,0,0,1-.672.728.708.708,0,0,1-.743-.708v-3.5a1.617,1.617,0,1,1,1.415,0Zm2.729-6.307H11.4V8.227a3.437,3.437,0,0,1,6.873,0Z" transform="translate(-6.75 -3.374)" fill="#0aa8ba"/>
</svg>
